<svg id="Layer_1" data-name="Layer 1" xmlns="http://www.w3.org/2000/svg" viewBox="0 0 78.38 78.49"><defs><style>.cls-1{fill:#00a79d;}.cls-2{fill:#318f91;}.cls-3{fill:#004540;}.cls-4{fill:#bdaaa5;}.cls-5{fill:#e5e2e2;}</style></defs><path class="cls-1" d="M84.2,38.06,45,18.36,5.82,38.06v-11L45,7.47h0L84.2,27.07Z" transform="translate(-5.82 -7.47)"/><path class="cls-2" d="M12.35,40.24H77.67V81.6H12.35Z" transform="translate(-5.82 -7.47)"/><path class="cls-2" d="M36.3,77.25A8.71,8.71,0,1,1,45,86,8.7,8.7,0,0,1,36.3,77.25Z" transform="translate(-5.82 -7.47)"/><path class="cls-3" d="M40.65,77.25A4.36,4.36,0,1,1,45,81.6,4.36,4.36,0,0,1,40.65,77.25Z" transform="translate(-5.82 -7.47)"/><path class="cls-4" d="M71.14,35.88l-24,4.36H42.83L18.88,35.88,16.7,43.66V77.25H73.31V43.66Z" transform="translate(-5.82 -7.47)"/><path class="cls-5" d="M73.31,35.88s-26.13-.32-26.13,4.36v37c0-4.67,26.13-4.35,26.13-4.35Zm-56.61,0s26.13-.32,26.13,4.36v37c0-4.67-26.13-4.35-26.13-4.35Z" transform="translate(-5.82 -7.47)"/><path class="cls-3" d="M45,24.37a6.08,6.08,0,0,0-2,11.82v4.45h-6.1a2,2,0,0,0-.45,4h0L43,46.25V59a6.1,6.1,0,0,1-6.1,6.1c-7.57,0-9.35-7.82-9.77-10.81a5.76,5.76,0,0,0,3.52-.13c-.67-4.58-5.95-8.56-5.95-8.56s-5.13,4.56-5.48,9.06a8.38,8.38,0,0,0,3.52-.24c.73,11.08,9.35,17.13,19,18.55L45,77.25l3.25-4.33C58,71.5,66.57,65.45,67.31,54.37a8.38,8.38,0,0,0,3.52.24c-.35-4.5-5.48-9.06-5.48-9.06s-5.29,4-5.95,8.56a5.74,5.74,0,0,0,3.51.13c-.42,3-2.2,10.81-9.77,10.81A6.1,6.1,0,0,1,47,59V46.25l6.56-1.59h0a2.06,2.06,0,0,0,1.58-2,2,2,0,0,0-2-2H47V36.19a6.08,6.08,0,0,0-2-11.82Zm0,4.07a2,2,0,1,1-2,2A2,2,0,0,1,45,28.44Z" transform="translate(-5.82 -7.47)"/></svg>