<svg id="Layer_1" data-name="Layer 1" xmlns="http://www.w3.org/2000/svg" viewBox="0 0 71.29 93.43"><defs><style>.cls-1{fill:#0f6f7b;}</style></defs><path class="cls-1" d="M34.5,41.41h0L.06,16.87Z"/><rect class="cls-1" x="30.58" y="12.27" width="42.29" height="0.01"/><path class="cls-1" d="M69,0V16.87L34.51,41.41.06,16.87V0L34.5,24.54h0Z"/><path class="cls-1" d="M69.91,26.49V43.35L35.47,67.89h0V51h0Z"/><rect class="cls-1" x="17.28" y="-8.87" width="0.01" height="42.29" transform="translate(-3.62 15.81) rotate(-45)"/><path class="cls-1" d="M3.71,33"/><path class="cls-1" d="M71.29,52V68.89L36.85,93.43h0V76.56h0Z"/><path class="cls-1" d="M4.68,60.46"/><path class="cls-1" d="M0,16.84l13.73,9.8c0,8.58,0,34.12,0,42.29h0L0,59.13H0Z"/><path class="cls-1" d="M55.52,73.57"/></svg>