<svg xmlns="http://www.w3.org/2000/svg" viewBox="0 0 26 26">
  <path d="M11.53125 0.09375C11.289063 0.109375 11.039063 0.21875 10.875 0.40625L1.9375 10.34375C1.734375 10.578125 1 11.625 1 13.21875C1.019531 13.195313 1.042969 13.179688 1.0625 13.15625C1.039063 13.332031 1 13.503906 1 13.6875C1 14.804688 1.289063 15.613281 1.6875 16.1875C1.335938 16.695313 1 17.4375 1 18.375C1 19.714844 1.453125 20.671875 1.96875 21.25C2.484375 21.828125 3.125 22.0625 3.125 22.0625L15.28125 25.96875C15.667969 26.089844 16.085938 25.964844 16.34375 25.65625L24.78125 15.375C25.042969 15.054688 25.078125 14.609375 24.875 14.25C24.875 14.25 23.925781 12.679688 24.90625 10.0625C24.960938 9.945313 24.992188 9.816406 25 9.6875C25 9.675781 25 9.667969 25 9.65625C25 9.636719 25 9.613281 25 9.59375C25 9.582031 25 9.574219 25 9.5625C25 9.53125 25 9.5 25 9.46875C24.980469 9.300781 24.914063 9.136719 24.8125 9C24.8125 9 24.835938 9.109375 24.8125 8.96875C24.789063 8.828125 24.761719 8.53125 24.9375 8C25.054688 7.664063 24.984375 7.289063 24.753906 7.019531C24.519531 6.75 24.164063 6.625 23.8125 6.6875C23.457031 6.761719 23.167969 7.027344 23.0625 7.375C22.800781 8.175781 22.757813 8.828125 22.84375 9.3125C22.851563 9.363281 22.863281 9.359375 22.875 9.40625L15.25 18.84375L3.75 15.3125C3.679688 15.292969 3.605469 15.285156 3.53125 15.28125C3.53125 15.28125 3.550781 15.328125 3.40625 15.1875C3.261719 15.046875 3 14.71875 3 13.6875C3 12.949219 3.183594 12.71875 3.40625 12.5625C3.574219 12.445313 3.828125 12.351563 4.125 12.34375L4.1875 12.34375L14.6875 15.53125C14.765625 15.550781 14.859375 15.5625 14.9375 15.5625C15.207031 15.5625 15.453125 15.429688 15.625 15.21875L24.78125 4.40625C24.980469 4.164063 25.042969 3.828125 24.9375 3.53125C24.835938 3.230469 24.589844 3.003906 24.28125 2.9375L11.75 0.09375C11.667969 0.078125 11.613281 0.0898438 11.53125 0.09375 Z M 11.28125 3.5C11.375 3.496094 11.441406 3.511719 11.53125 3.53125L17.96875 5.09375C18.320313 5.179688 18.4375 5.429688 18.25 5.65625L17.5625 6.5C17.371094 6.726563 16.945313 6.832031 16.59375 6.75L10.15625 5.1875C9.800781 5.101563 9.6875 4.847656 9.875 4.625L10.5625 3.78125C10.703125 3.613281 10.996094 3.507813 11.28125 3.5 Z M 22.5 13C22.585938 13.65625 22.773438 14.164063 22.90625 14.5L15.25 23.84375L3.78125 20.1875C3.78125 20.1875 3.75 20.1875 3.75 20.1875C3.738281 20.183594 3.664063 20.15625 3.46875 19.9375C3.261719 19.703125 3 19.289063 3 18.375C3 17.890625 3.195313 17.523438 3.375 17.28125L15.28125 20.96875C15.671875 21.082031 16.09375 20.945313 16.34375 20.625Z" fill="#14575f" />
</svg>