<svg xmlns="http://www.w3.org/2000/svg" viewBox="0 0 50 50">
  <path d="M24.375 4C22.578125 4 20.699219 5.421875 19.9375 7.375L19.3125 9L14 9L14 8C14 7.445313 13.554688 7 13 7L6 7C5.445313 7 5 7.445313 5 8L5 9.28125C2.058594 10.148438 0 12.863281 0 16L0 37C0 40.859375 3.140625 44 7 44L43 44C46.859375 44 50 40.859375 50 37L50 16C50 12.140625 46.859375 9 43 9L40.6875 9L40.0625 7.375C39.300781 5.421875 37.421875 4 35.625 4 Z M 30 13C37.167969 13 43 18.832031 43 26C43 33.167969 37.167969 39 30 39C22.832031 39 17 33.167969 17 26C17 18.832031 22.832031 13 30 13 Z M 7 14C8.105469 14 9 14.894531 9 16C9 17.105469 8.105469 18 7 18C5.894531 18 5 17.105469 5 16C5 14.894531 5.894531 14 7 14 Z M 30 15C23.933594 15 19 19.933594 19 26C19 32.066406 23.933594 37 30 37C36.066406 37 41 32.066406 41 26C41 19.933594 36.066406 15 30 15Z" fill="#14575f" />
</svg>