<svg xmlns="http://www.w3.org/2000/svg" viewBox="0 0 50 50">
  <path d="M45.03125 3.5C42.273438 3.5 40.03125 5.742188 40.03125 8.5C40.03125 11.257813 42.273438 13.5 45.03125 13.5C47.789063 13.5 50.03125 11.257813 50.03125 8.5C50.03125 5.742188 47.789063 3.5 45.03125 3.5 Z M 27.59375 3.5625C27.425781 3.5625 27.265625 3.570313 27.125 3.59375L16.75 4.71875C15.859375 4.972656 13.484375 5.621094 13.78125 7.53125C13.90625 8.53125 15.300781 9 16.53125 9C16.679688 9 16.824219 8.980469 16.90625 8.96875L26.625 8.78125L30.0625 11.46875L22.3125 16.90625C20.214844 18.429688 18.316406 20.417969 20.1875 23.6875L27.09375 33.65625C24.605469 33.6875 17.960938 33.773438 16.46875 33.9375C14.082031 34.21875 13.71875 35.625 13.71875 36.4375C13.71875 37.679688 14.597656 38.9375 16.53125 38.9375L32.625 38.9375C33.925781 38.9375 34.933594 38.460938 35.40625 37.65625C35.832031 36.9375 35.800781 36.027344 35.28125 35.09375C34.566406 33.757813 29.488281 26.039063 28.28125 24.15625L38.5625 17.625C40.085938 16.65625 40.433594 15.167969 39.53125 13.5625C38.828125 12.257813 37.105469 9.617188 37.0625 9.5625C36.992188 9.421875 36.863281 9.140625 29.1875 4.09375C28.742188 3.738281 28.1875 3.5625 27.59375 3.5625 Z M 0.8125 12C0.308594 12.105469 -0.03125 12.574219 0.015625 13.082031C0.0625 13.59375 0.488281 13.988281 1 14L20 14C20.394531 14.058594 20.785156 13.882813 21 13.546875C21.214844 13.214844 21.214844 12.785156 21 12.453125C20.785156 12.117188 20.394531 11.941406 20 12L1 12C0.9375 11.996094 0.875 11.996094 0.8125 12 Z M 0.8125 17C0.308594 17.105469 -0.03125 17.574219 0.015625 18.082031C0.0625 18.59375 0.488281 18.988281 1 19L15 19C15.394531 19.058594 15.785156 18.882813 16 18.546875C16.214844 18.214844 16.214844 17.785156 16 17.453125C15.785156 17.117188 15.394531 16.941406 15 17L1 17C0.9375 16.996094 0.875 16.996094 0.8125 17 Z M 40.46875 18.65625C40.214844 18.886719 39.9375 19.113281 39.625 19.3125L35.21875 22.125L35.5 23.78125C35.507813 23.820313 35.515625 23.871094 35.53125 23.90625C35.847656 24.640625 36.261719 25.359375 37.4375 25.5C37.503906 25.496094 44.34375 25.09375 45.84375 25.09375C48.617188 24.921875 49.121094 23.679688 49.1875 22.9375C49.226563 22.320313 49.109375 21.859375 48.8125 21.53125C48.335938 21.003906 47.585938 20.972656 46.78125 20.9375C46.605469 20.929688 46.414063 20.921875 46.21875 20.90625L40.65625 20.625 Z M 0.8125 22C0.308594 22.105469 -0.03125 22.574219 0.015625 23.082031C0.0625 23.59375 0.488281 23.988281 1 24L15 24C15.394531 24.058594 15.785156 23.882813 16 23.546875C16.214844 23.214844 16.214844 22.785156 16 22.453125C15.785156 22.117188 15.394531 21.941406 15 22L1 22C0.9375 21.996094 0.875 21.996094 0.8125 22 Z M 0.8125 27C0.308594 27.105469 -0.03125 27.574219 0.015625 28.082031C0.0625 28.59375 0.488281 28.988281 1 29L19 29C19.394531 29.058594 19.785156 28.882813 20 28.546875C20.214844 28.214844 20.214844 27.785156 20 27.453125C19.785156 27.117188 19.394531 26.941406 19 27L1 27C0.9375 26.996094 0.875 26.996094 0.8125 27 Z M 19.84375 40.9375C18.332031 42.5 16.671875 44.214844 15.90625 45.125C14.539063 46.71875 14.34375 48.285156 15.375 49.4375C15.828125 49.839844 16.296875 50 16.78125 50C17.871094 50 19.007813 49.136719 20.03125 48.21875C21.140625 47.238281 24.90625 43.5 27.46875 40.9375Z" fill="#14575f" />
</svg>