<svg xmlns="http://www.w3.org/2000/svg" viewBox="0 0 32 32">
  <path d="M11 2C9.3550302 2 8 3.3550302 8 5L8 27C8 28.64497 9.3550302 30 11 30L21 30C22.64497 30 24 28.64497 24 27L24 5C24 3.3550302 22.64497 2 21 2L11 2 z M 11 4L12 4C12 5.105 12.895 6 14 6L18 6C19.105 6 20 5.105 20 4L21 4C21.56503 4 22 4.4349698 22 5L22 27C22 27.56503 21.56503 28 21 28L11 28C10.43497 28 10 27.56503 10 27L10 5C10 4.4349698 10.43497 4 11 4 z M 16 25C15.449 25 15 25.449 15 26C15 26.551 15.449 27 16 27C16.551 27 17 26.551 17 26C17 25.449 16.551 25 16 25 z" fill="#14575f" />
</svg>