<svg xmlns="http://www.w3.org/2000/svg" viewBox="0 0 30 30">
  <path d="M15 4C10.814 4 5.3808594 5.0488281 5.3808594 5.0488281L5.3671875 5.0644531C3.4606632 5.3693645 2 7.0076245 2 9L2 15L2 15.001953L2 21L2 21.001953 A 4 4 0 0 0 5.3769531 24.945312L5.3808594 24.951172C5.3808594 24.951172 10.814 26.001953 15 26.001953C19.186 26.001953 24.619141 24.951172 24.619141 24.951172L24.621094 24.949219 A 4 4 0 0 0 28 21.001953L28 21L28 15.001953L28 15L28 9 A 4 4 0 0 0 24.623047 5.0546875L24.619141 5.0488281C24.619141 5.0488281 19.186 4 15 4 z M 12 10.398438L20 15L12 19.601562L12 10.398438 z" fill="#14575f" />
</svg>