<svg xmlns="http://www.w3.org/2000/svg" viewBox="0 0 50 50">
  <path d="M47.8125 2.5C47.480469 2.5 47.1875 2.761719 47.1875 3.09375C47.1875 3.425781 47.480469 3.6875 47.8125 3.6875C48.144531 3.6875 48.40625 3.425781 48.40625 3.09375C48.40625 2.761719 48.144531 2.5 47.8125 2.5 Z M 46.1875 2.6875C45.855469 2.6875 45.59375 2.980469 45.59375 3.3125C45.59375 3.644531 45.855469 3.90625 46.1875 3.90625C46.519531 3.90625 46.8125 3.644531 46.8125 3.3125C46.8125 2.980469 46.519531 2.6875 46.1875 2.6875 Z M 44.59375 3C44.261719 3 44 3.261719 44 3.59375C44 3.925781 44.261719 4.1875 44.59375 4.1875C44.925781 4.1875 45.1875 3.925781 45.1875 3.59375C45.1875 3.261719 44.925781 3 44.59375 3 Z M 43 3.3125C42.667969 3.3125 42.40625 3.574219 42.40625 3.90625C42.40625 4.238281 42.667969 4.5 43 4.5C43.332031 4.5 43.59375 4.238281 43.59375 3.90625C43.59375 3.574219 43.332031 3.3125 43 3.3125 Z M 41.3125 3.6875C40.980469 3.6875 40.6875 3.980469 40.6875 4.3125C40.6875 4.644531 40.980469 4.90625 41.3125 4.90625C41.644531 4.90625 41.90625 4.644531 41.90625 4.3125C41.90625 3.980469 41.644531 3.6875 41.3125 3.6875 Z M 48.09375 3.875C48.03125 3.878906 47.96875 3.890625 47.90625 3.90625L42.03125 5.03125C42.019531 5.03125 42.011719 5.03125 42 5.03125C41.25 5.179688 40.652344 5.558594 40.1875 5.90625C40.152344 5.933594 40.121094 5.964844 40.09375 6L23.96875 22.1875C23.78125 21.453125 23.390625 20.6875 22.6875 19.90625C21.6875 18.90625 20.1875 18.3125 18.6875 18.3125C17.1875 18.3125 15.789063 18.90625 14.6875 19.90625C13.585938 21.007813 12.789063 22.5 12.6875 24C12.585938 25 11.8125 25.8125 10.8125 25.8125L10.09375 25.8125C7.292969 25.8125 5.011719 26.707031 3.3125 28.40625C-1.386719 33.007813 -1.011719 39.710938 4.1875 44.8125C6.886719 47.511719 9.992188 49 13.09375 49C15.792969 49 18.492188 47.789063 20.59375 45.6875C22.894531 43.386719 23.207031 41.210938 23.40625 39.3125C23.40625 39.113281 23.5 38.792969 23.5 38.59375C23.699219 37.292969 24.59375 36.886719 26.09375 36.1875C27.695313 35.488281 30 34.6875 30 31.6875C30 31.289063 29.898438 30 28 30C27.699219 30 27.394531 29.992188 27.09375 30.09375C26.792969 30.09375 26.492188 30.1875 26.09375 30.1875C25.164063 30.1875 24.761719 29.957031 24.46875 29.34375L43.5 10.3125C43.78125 10.03125 43.859375 10 44.09375 10C44.125 10 44.15625 10 44.1875 10L45.28125 9.90625C45.324219 9.898438 45.367188 9.886719 45.40625 9.875C46.03125 9.75 46.734375 9.484375 47.3125 8.90625L49.71875 6.5C50.105469 6.109375 50.105469 5.484375 49.71875 5.09375L48.8125 4.1875C48.625 3.988281 48.367188 3.878906 48.09375 3.875 Z M 47.34375 6.0625L45.90625 7.5C45.683594 7.722656 45.375 7.832031 45 7.90625L44.09375 8L44 8L44 8.03125C43.273438 8.0625 42.589844 8.410156 42.09375 8.90625L21.40625 29.59375L20.40625 28.59375L41.40625 7.5C41.734375 7.253906 42.125 7.023438 42.375 6.96875L42.40625 6.96875 Z M 15.09375 30.09375L19.5 34.5L18 36L13.59375 31.59375 Z M 11 34.1875L15.40625 38.59375L13.90625 40.09375L9.5 35.6875 Z M 18 41C18.601563 41 19 41.398438 19 42C19 42.601563 18.601563 43 18 43C17.398438 43 17 42.601563 17 42C17 41.398438 17.398438 41 18 41 Z M 11 43C11.601563 43 12 43.398438 12 44C12 44.601563 11.601563 45 11 45C10.398438 45 10 44.601563 10 44C10 43.398438 10.398438 43 11 43 Z M 15 43C15.601563 43 16 43.398438 16 44C16 44.601563 15.601563 45 15 45C14.398438 45 14 44.601563 14 44C14 43.398438 14.398438 43 15 43Z" fill="#14575f" />
</svg>