<?xml version="1.0" encoding="UTF-8" standalone="no" ?>
<svg xmlns="http://www.w3.org/2000/svg" xmlns:xlink="http://www.w3.org/1999/xlink" version="1.1" width="1080" height="1080" viewBox="0 0 1080 1080" xml:space="preserve">
<defs>
</defs>
<g transform="matrix(1 0 0 1 540 540)" id="20d98082-34ca-4fa3-8c07-6a872c9260d7"  >
<rect style="stroke: none; stroke-width: 1; stroke-dasharray: none; stroke-linecap: butt; stroke-dashoffset: 0; stroke-linejoin: miter; stroke-miterlimit: 4; fill: rgb(255,255,255); fill-rule: nonzero; opacity: 1; visibility: hidden;" vector-effect="non-scaling-stroke"  x="-540" y="-540" rx="0" ry="0" width="1080" height="1080" />
</g>
<g transform="matrix(1 0 0 1 540 540)" id="3f2d3f14-cd63-4405-916c-6d90ca0bbf9a"  >
</g>
<g transform="matrix(1 0 0 1 540 540)"  >
<g style="" vector-effect="non-scaling-stroke"   >
		<g transform="matrix(1 0 0 1 0 0)"  >
<circle style="stroke: rgb(255,255,255); stroke-width: 1; stroke-dasharray: none; stroke-linecap: butt; stroke-dashoffset: 0; stroke-linejoin: miter; stroke-miterlimit: 10; fill: #14575f; fill-rule: nonzero; opacity: 1;" vector-effect="non-scaling-stroke"  cx="0" cy="0" r="481.33" />
</g>
		<g transform="matrix(1 0 0 1 0 0)" id="path1009"  >
<path style="stroke: none; stroke-width: 1; stroke-dasharray: none; stroke-linecap: butt; stroke-dashoffset: 0; stroke-linejoin: miter; stroke-miterlimit: 4; fill: rgb(255,255,255); fill-rule: nonzero; opacity: 1;" vector-effect="non-scaling-stroke"  transform=" translate(-781.89, -635.65)" d="M 485.39 356.79 L 715.46 664.4100000000001 L 483.94 914.52 L 536.05 914.52 L 738.75 695.54 L 902.52 914.52 L 1079.84 914.52 L 836.82 589.6 L 1052.3200000000002 356.79 L 1000.2100000000002 356.79 L 813.54 558.46 L 662.71 356.79 L 485.39 356.79 z M 562.02 395.17 L 643.48 395.17 L 1003.2 876.1400000000001 L 921.74 876.1400000000001 L 562.02 395.17 z" stroke-linecap="round" />
</g>
</g>
</g>
</svg>